# xmcd
# 
# Track frame offsets:
#     225
#     10467
#     21182
#     33232
#     44900
#     57582
#     67665
#     77830
#     90377
#     101150
#     112207
#     124642
#     136615
#     151800
#     164307
#     176737
#     187982
# 
# Disc length: 2663
# 
# Revision: 3
# Processed by: cddbd v1.5.2PL0 Copyright (c) Steve Scherf et al.
# Submitted via: fre:ac v1.0.31
# 
DISCID=de0a6411
DTITLE=Lightning Hopkins - The Herald Recordings - 1954
DYEAR=0
DGENRE=Blues
TTITLE0=Hear Me Talkin'
TTITLE1=Nothin' But The Blues
TTITLE2=Don't Think 'Cause You're Pretty
TTITLE3=Lightnin's Boogie
TTITLE4=Life I Used To Live
TTITLE5=Hopkins' Sky Hop
TTITLE6=Sick Feelin' Blues
TTITLE7=Evil Hearted Woman
TTITLE8=My Little Kewpie Doll
TTITLE9=Blues For My Cookie
TTITLE10=Sittin' Down Thinkin'
TTITLE11=Lightnin's Stomp
TTITLE12=Lightnin' Don't Feel Well
TTITLE13=My Baby's Gone
TTITLE14=Lonesome In Your Home
TTITLE15=Flash Lightnin'
TTITLE16=Shine On Moon
EXTD=
EXTT0=
EXTT1=
EXTT2=
EXTT3=
EXTT4=
EXTT5=
EXTT6=
EXTT7=
EXTT8=
EXTT9=
EXTT10=
EXTT11=
EXTT12=
EXTT13=
EXTT14=
EXTT15=
EXTT16=
PLAYORDER=
